<svg version="1.0" xmlns="http://www.w3.org/2000/svg"
 width="1333.000000pt" height="1333.000000pt" viewBox="0 0 1333.000000 1333.000000" stroke-width="1.5" stroke="currentColor"
 preserveAspectRatio="xMidYMid meet">
 

<g transform="translate(0.000000,1333.000000) scale(0.100000,-0.100000)"
fill="#000000" stroke="none">
<path d="M6515 12461 c-55 -3 -105 -9 -111 -13 -6 -4 -26 -81 -44 -171 l-32
-164 -127 -16 c-158 -21 -148 -21 -156 6 -12 39 -107 261 -117 275 -15 17 -45
15 -166 -13 -64 -15 -112 -32 -119 -42 -8 -11 -13 -51 -13 -108 0 -51 -3 -125
-6 -166 l-7 -75 -120 -41 -120 -41 -20 21 c-11 12 -52 72 -91 132 -78 121 -98
134 -161 101 -16 -8 -60 -28 -97 -44 -102 -46 -102 -48 -68 -227 16 -82 29
-155 30 -161 0 -6 -14 -17 -31 -24 -17 -8 -67 -35 -111 -62 -44 -26 -84 -48
-89 -48 -6 0 -57 45 -113 99 -57 54 -113 104 -125 110 -24 13 -39 8 -114 -45
-26 -19 -49 -34 -52 -34 -2 0 -23 -17 -45 -38 l-42 -38 26 -70 c13 -38 38
-102 55 -143 47 -111 46 -115 -58 -204 -49 -42 -96 -77 -105 -77 -14 0 -112
61 -220 137 -17 12 -40 22 -52 22 -26 1 -204 -179 -204 -206 0 -10 27 -60 60
-111 33 -51 60 -95 60 -98 0 -2 12 -22 26 -44 l26 -39 -43 -61 c-93 -129 -122
-162 -138 -156 -9 3 -70 27 -136 54 -173 70 -159 70 -205 2 -22 -33 -40 -63
-40 -68 0 -5 -9 -17 -20 -27 -11 -10 -20 -25 -20 -33 0 -9 -7 -24 -16 -33 -16
-17 -15 -21 8 -51 14 -18 61 -71 105 -118 44 -47 85 -95 91 -106 10 -18 2 -39
-50 -140 -34 -66 -62 -120 -63 -121 0 -1 -70 11 -155 27 -84 17 -158 30 -165
30 -11 0 -105 -241 -105 -268 0 -15 50 -61 67 -62 6 0 13 -3 15 -8 2 -4 33
-26 70 -50 101 -66 122 -86 115 -113 -18 -80 -65 -240 -71 -246 -4 -5 -81 -9
-172 -11 -159 -3 -164 -4 -169 -25 -13 -55 -43 -263 -39 -267 3 -3 71 -34 152
-70 l147 -66 3 -74 c2 -41 1 -107 -3 -147 l-7 -71 -76 -17 c-42 -9 -116 -26
-164 -37 l-88 -20 0 -148 0 -149 58 -11 c169 -35 264 -58 273 -67 6 -6 14 -50
20 -99 5 -49 12 -109 15 -134 l6 -45 -148 -64 c-82 -35 -153 -68 -158 -72 -5
-5 2 -54 18 -117 14 -60 26 -118 26 -129 0 -41 24 -48 194 -53 l161 -5 23 -65
c13 -36 32 -96 42 -133 l19 -68 -27 -24 c-29 -25 -159 -117 -205 -144 -25 -14
-28 -21 -24 -52 4 -33 80 -223 97 -242 6 -6 226 28 316 50 23 5 40 -20 128
-179 l36 -67 -115 -122 c-89 -94 -114 -127 -109 -142 8 -26 144 -218 158 -223
7 -2 72 21 146 52 74 30 143 58 153 61 12 4 30 -9 57 -38 22 -24 40 -47 40
-50 0 -3 20 -28 45 -55 25 -27 45 -54 45 -61 0 -7 -36 -74 -81 -149 -76 -128
-80 -138 -68 -162 17 -30 177 -182 193 -182 12 0 121 67 193 120 70 50 88 56
120 35 55 -36 178 -138 181 -149 1 -7 -20 -70 -48 -141 -70 -176 -70 -175 -23
-212 21 -16 71 -51 112 -77 65 -42 77 -46 96 -36 12 7 71 61 131 121 l108 108
117 -60 c65 -34 120 -67 123 -74 2 -7 -9 -77 -25 -156 -16 -79 -29 -151 -29
-161 0 -19 49 -45 173 -92 79 -31 115 -33 125 -8 10 25 85 136 94 140 5 2 8 8
8 14 0 6 10 25 23 42 13 17 26 39 30 49 7 20 8 20 157 -20 52 -15 99 -30 104
-34 5 -5 12 -83 16 -174 4 -127 9 -168 20 -175 13 -8 133 -32 232 -46 55 -7
42 -25 124 176 26 63 53 121 60 129 10 11 33 12 134 3 67 -5 126 -14 130 -19
5 -4 20 -64 34 -133 14 -69 31 -142 36 -163 11 -37 11 -37 63 -37 29 0 95 3
148 6 l95 7 28 146 c16 80 30 156 33 168 6 26 25 31 172 47 l103 12 22 -51
c12 -27 42 -97 66 -154 l44 -103 51 5 c27 3 91 15 141 27 l91 21 7 67 c3 37 6
117 6 178 l0 110 128 43 127 42 28 -33 c15 -18 27 -36 27 -41 0 -8 17 -34 82
-121 21 -28 38 -57 38 -65 0 -24 67 -7 180 45 58 26 108 50 112 53 6 5 -30
203 -59 328 -4 17 4 26 44 48 26 15 74 43 106 61 32 19 68 34 79 34 13 0 63
-42 135 -112 111 -110 114 -112 138 -98 69 43 163 112 187 137 l28 29 -54 144
c-30 80 -56 154 -59 165 -4 16 15 38 90 103 52 45 102 82 110 82 7 0 68 -36
135 -81 67 -44 127 -83 134 -86 14 -5 133 104 186 170 l30 38 -38 62 c-20 34
-62 99 -92 144 -35 54 -52 88 -48 100 3 10 23 36 44 59 20 23 42 48 47 56 48
71 62 88 78 88 10 0 83 -27 162 -59 l144 -59 49 76 c27 43 62 100 77 128 l29
52 -117 125 -116 126 15 38 c9 21 36 75 62 121 53 96 43 93 222 62 147 -25
158 -25 169 3 50 128 74 198 78 227 4 35 3 36 -109 110 -62 41 -124 85 -137
96 l-23 22 20 63 c12 35 26 91 32 124 5 32 15 64 21 70 5 5 79 12 169 15 87 3
163 10 169 15 10 11 41 194 41 248 l0 35 -147 65 -148 65 3 128 c2 70 7 137
12 149 7 17 30 25 149 50 78 16 145 32 150 35 5 3 12 71 15 152 l8 147 -24 6
c-13 3 -85 18 -161 34 -76 16 -141 31 -143 34 -9 9 -33 155 -36 221 l-3 69
135 61 c75 34 143 66 152 71 15 9 15 21 -9 145 -15 74 -28 137 -29 139 -2 2
-75 7 -163 12 -89 4 -169 10 -180 14 -13 4 -23 22 -31 58 -7 29 -25 86 -40
128 l-28 77 42 29 c22 16 83 57 134 92 84 57 92 66 92 94 0 18 -7 46 -16 62
-9 17 -27 58 -41 92 -41 102 -37 101 -214 70 -97 -17 -158 -23 -168 -18 -9 5
-38 51 -65 103 -27 51 -56 101 -64 110 -13 15 -6 25 71 105 88 91 147 160 147
173 0 11 -131 203 -144 212 -22 15 -59 7 -188 -42 -75 -29 -139 -48 -149 -45
-11 4 -31 23 -46 43 -15 20 -49 62 -75 91 -27 30 -48 60 -48 66 0 10 29 58
135 228 l36 58 -21 29 c-27 38 -182 180 -196 180 -6 0 -44 -24 -85 -53 -161
-115 -188 -131 -212 -119 -12 6 -59 42 -104 81 -92 79 -96 91 -64 163 31 68
91 222 91 234 0 11 -153 114 -170 114 -5 0 -10 4 -10 8 0 10 -45 32 -66 32 -8
0 -68 -52 -134 -115 l-119 -116 -113 60 c-64 34 -115 67 -116 77 -2 9 5 73 16
143 34 210 39 186 -37 217 -108 43 -191 74 -201 74 -8 0 -89 -113 -120 -168
-47 -85 -64 -102 -100 -102 -36 0 -209 45 -222 59 -4 3 -11 82 -16 174 -5 92
-11 169 -13 171 -6 6 -239 46 -266 46 -21 0 -64 -85 -119 -234 l-29 -79 -134
7 c-74 3 -136 8 -138 10 -2 2 -21 79 -41 172 l-38 169 -39 1 c-22 1 -85 -2
-140 -5z m356 -1246 c279 -15 673 -126 959 -270 326 -164 602 -379 839 -652
127 -148 146 -171 198 -248 149 -220 255 -422 331 -635 84 -230 162 -556 162
-672 l0 -38 -892 2 -893 3 -5 85 c-6 97 -12 111 -74 168 -116 107 -370 245
-803 436 -123 54 -223 100 -223 102 0 1 46 28 103 59 56 31 109 61 117 66 8 4
56 32 105 60 385 224 595 383 674 511 l22 38 -7 309 -7 310 -50 62 c-55 68
-187 170 -289 224 l-68 36 0 -250 0 -249 68 -38 c87 -48 172 -105 172 -114 0
-6 -43 -39 -150 -114 -114 -81 -303 -192 -865 -511 -143 -81 -273 -156 -288
-167 -28 -19 -28 -19 -70 2 -102 53 -240 133 -264 154 l-26 23 59 44 c82 63
183 125 449 279 127 73 313 181 415 240 102 59 201 115 220 125 19 9 56 31 82
49 l47 31 0 220 c-1 121 -4 230 -7 242 -7 21 -9 20 -94 -25 -116 -62 -931
-536 -986 -573 -23 -16 -45 -29 -47 -29 -10 0 -161 -126 -203 -169 -23 -24
-55 -64 -70 -90 l-27 -46 0 -300 c0 -165 4 -313 8 -328 4 -16 37 -60 73 -98
60 -64 64 -71 52 -91 -15 -27 -19 -589 -5 -645 l9 -33 -852 0 -852 0 7 63 c9
80 40 236 70 357 79 312 239 656 431 925 35 50 76 108 91 130 32 48 376 392
453 453 84 67 294 204 405 265 169 93 425 194 600 237 324 79 522 96 896 75z
m-643 -2114 c136 -60 321 -141 411 -180 219 -95 441 -202 441 -213 0 -4 -122
-8 -271 -8 l-271 0 -126 54 c-296 126 -526 242 -597 300 l-30 25 24 18 c51 37
163 113 168 113 2 0 116 -49 251 -109z m-490 -490 c139 -105 369 -225 711
-368 123 -51 230 -97 239 -102 11 -6 0 -17 -50 -45 l-65 -36 -154 0 -154 0
-30 63 c-16 34 -36 62 -44 62 -8 0 -46 -53 -84 -117 l-70 -118 -67 118 c-37
64 -73 118 -81 119 -8 2 -31 -29 -57 -76 -24 -43 -56 -93 -71 -111 l-27 -32
-52 94 c-28 52 -59 103 -67 114 -14 19 -15 18 -34 -6 -11 -14 -44 -67 -72
-117 -29 -51 -56 -93 -60 -93 -4 0 -16 17 -26 39 -23 50 -30 51 -373 51 l-267
0 -6 128 c-8 148 -25 229 -67 312 -43 86 -87 112 -193 118 -108 6 -162 -10
-209 -58 -66 -70 -108 -227 -108 -401 l0 -99 -139 0 -138 0 -7 31 c-3 17 -6
155 -6 305 l0 274 883 0 882 -1 63 -48z m1529 8 c41 -23 86 -51 100 -63 l25
-22 -75 -52 c-41 -29 -82 -55 -91 -58 -12 -5 -557 215 -575 232 -2 2 118 4
269 4 l273 0 74 -41z m2109 -15 c8 -68 -1 -512 -11 -536 -6 -16 -20 -18 -109
-16 -87 1 -93 2 -46 8 51 6 49 7 -32 8 l-88 2 0 270 0 271 -72 -3 -72 -3 -9
-37 c-16 -66 -97 -118 -184 -118 l-33 0 0 -70 0 -70 95 0 95 0 0 -131 0 -132
-82 6 c-46 4 -117 7 -158 7 l-76 0 -32 66 c-18 36 -37 64 -43 62 -6 -2 -38
-46 -70 -98 -32 -52 -64 -103 -71 -114 -13 -17 -20 -9 -79 95 -37 62 -70 114
-75 116 -5 2 -41 -49 -79 -112 -38 -63 -73 -111 -77 -107 -13 14 -118 201
-118 211 0 45 -74 -47 -135 -169 l-27 -54 -19 24 c-10 14 -37 45 -59 70 -21
25 -63 74 -92 110 l-54 65 4 218 4 217 898 0 899 0 7 -56z m-4825 -184 c31
-41 41 -132 37 -325 -3 -158 -7 -186 -25 -228 -25 -53 -53 -69 -95 -55 -42 15
-65 63 -79 163 -13 102 -7 314 11 388 15 59 50 89 98 85 23 -2 41 -11 53 -28z
m1419 -447 c29 -51 56 -93 61 -93 11 0 49 51 104 143 26 42 50 75 54 73 4 -3
16 -23 26 -46 l18 -40 114 0 c62 0 113 -3 113 -7 0 -5 -42 -30 -93 -57 -121
-64 -381 -221 -432 -260 -22 -17 -64 -52 -94 -78 l-54 -48 -883 0 -883 0 -11
38 c-16 57 -80 358 -80 376 0 13 15 16 83 18 75 1 77 2 32 8 -41 6 -32 7 50 8
l101 2 22 -100 c27 -118 65 -181 134 -223 92 -57 237 -44 311 28 57 56 77 104
112 268 l5 27 281 0 280 0 22 -24 c12 -13 35 -43 50 -66 15 -23 33 -40 40 -38
7 2 33 40 59 84 59 99 77 124 88 124 5 0 28 -35 51 -77 50 -92 77 -133 88
-133 9 0 30 29 105 149 54 85 41 91 126 -56z m1999 64 c51 -92 94 -157 106
-157 10 0 80 110 119 188 9 17 20 32 24 32 4 0 36 -48 72 -107 36 -59 71 -108
77 -111 12 -3 26 17 117 167 l33 53 22 -46 23 -46 174 0 174 0 0 -170 0 -170
90 0 90 0 0 160 0 160 88 2 c78 1 82 2 37 8 -40 6 -32 7 40 6 l90 -1 3 -28 c4
-31 -38 -234 -68 -338 l-20 -66 -53 -7 c-28 -3 -375 -6 -769 -6 l-718 0 0 197
0 198 26 -38 c14 -21 30 -37 36 -35 6 2 40 52 76 111 36 59 68 107 71 107 3 0
21 -28 40 -63z m-3824 -7 c4 -6 -32 -10 -100 -10 -68 0 -104 4 -100 10 3 6 48
10 100 10 52 0 97 -4 100 -10z m1155 0 c10 -6 -72 -10 -240 -10 -168 0 -250 4
-240 10 9 6 112 10 240 10 128 0 231 -4 240 -10z m4005 0 c4 -6 -32 -10 -100
-10 -68 0 -104 4 -100 10 3 6 48 10 100 10 52 0 97 -4 100 -10z m-1962 -164
c115 -60 167 -96 167 -115 0 -9 -42 -46 -93 -82 -156 -112 -115 -104 -494
-107 -183 -2 -333 0 -333 5 0 4 75 48 168 98 92 49 230 124 307 167 77 43 152
78 166 78 15 0 65 -20 112 -44z m-1603 -355 c-5 -11 -15 -23 -20 -26 -6 -4
-20 -25 -32 -48 -22 -40 -23 -55 -26 -329 -4 -335 -11 -309 111 -425 66 -63
73 -72 64 -94 -5 -13 -11 -150 -14 -304 -6 -276 -6 -281 16 -324 27 -52 97
-129 160 -175 64 -47 262 -156 283 -156 17 0 18 17 18 239 l0 239 -95 51 c-52
28 -120 67 -151 88 l-57 38 46 40 c25 22 70 55 100 73 l54 33 154 -67 c334
-143 984 -404 1006 -404 11 0 13 46 11 242 l-3 241 -329 133 c-181 73 -331
136 -334 139 -10 10 21 32 157 110 597 341 861 549 861 678 l0 28 754 -3 c415
-2 758 -7 762 -11 25 -24 -205 -522 -318 -692 -82 -122 -96 -141 -199 -265
-261 -313 -611 -584 -954 -738 -265 -120 -471 -181 -750 -224 -169 -26 -528
-31 -690 -10 -744 98 -1401 485 -1862 1097 -33 44 -80 112 -104 151 -24 38
-50 79 -57 90 -7 10 -53 100 -101 199 -95 191 -166 368 -157 391 5 12 142 14
856 14 839 0 851 0 840 -19z m1429 -5 c-20 -14 -171 -102 -335 -197 -164 -95
-375 -216 -467 -271 -92 -54 -177 -98 -188 -98 -21 0 -219 97 -280 137 -22 14
-39 31 -39 37 0 7 39 42 88 78 91 68 165 114 410 254 l147 84 350 0 350 0 -36
-24z"/>
<path d="M2696 4922 c-3 -20 -6 -88 -6 -149 0 -109 1 -113 23 -117 12 -3 60
-12 107 -21 523 -99 1092 -300 1685 -595 237 -118 619 -335 784 -445 24 -17
51 -34 60 -40 34 -22 107 -70 116 -77 15 -11 163 -113 210 -145 59 -39 314
-244 442 -356 127 -111 264 -261 295 -325 12 -26 25 -83 32 -140 l11 -97 191
-3 190 -2 12 100 c7 63 20 116 33 142 30 59 331 362 474 477 133 107 318 245
369 276 18 11 62 42 97 68 178 134 614 389 969 566 605 302 1141 489 1753 611
l57 11 0 144 c0 79 -3 146 -7 148 -13 7 -414 -77 -588 -123 -370 -97 -695
-208 -1045 -355 -241 -102 -803 -385 -1000 -505 -319 -193 -713 -452 -777
-510 -9 -8 -24 -19 -34 -25 -39 -23 -311 -251 -404 -339 l-100 -94 -90 87
c-49 48 -130 120 -180 161 -49 40 -98 81 -107 89 -9 9 -33 27 -53 41 -20 14
-46 33 -56 43 -10 9 -23 17 -29 17 -5 0 -13 6 -17 13 -4 7 -48 41 -98 75 -49
34 -108 75 -130 91 -148 106 -576 367 -790 483 -738 401 -1462 670 -2195 817
-85 17 -165 33 -176 36 -18 4 -22 -1 -28 -33z"/>
<path d="M2696 3943 c-3 -21 -6 -88 -6 -150 l0 -111 28 -6 c15 -3 45 -8 67
-12 82 -13 378 -84 534 -128 653 -185 1442 -564 2121 -1018 91 -61 176 -119
190 -130 14 -10 57 -42 95 -70 112 -83 373 -298 463 -382 91 -87 200 -213 226
-264 10 -18 23 -79 29 -135 l12 -102 190 0 190 0 13 105 c9 70 20 116 34 140
31 52 337 359 453 454 117 97 382 296 394 296 4 0 19 10 32 21 66 59 427 286
663 418 144 81 512 266 677 341 441 201 1023 386 1462 465 l37 7 0 149 c0 82
-1 149 -3 149 -2 0 -75 -14 -163 -31 -591 -114 -1180 -308 -1744 -574 -234
-110 -570 -287 -740 -390 -222 -134 -536 -336 -646 -415 -55 -39 -109 -79
-122 -88 -92 -67 -325 -260 -422 -351 l-117 -110 -69 71 c-38 39 -118 112
-179 163 -60 50 -116 99 -124 108 -7 10 -18 17 -23 17 -6 0 -25 12 -43 28 -17
15 -42 34 -55 42 -12 8 -29 21 -37 29 -7 7 -48 37 -91 67 -1023 712 -2020
1162 -3066 1383 -279 59 -252 58 -260 14z"/>
<path d="M2696 3063 c-3 -21 -6 -88 -6 -150 l0 -111 28 -6 c15 -3 45 -8 67
-12 81 -13 375 -84 534 -129 654 -184 1459 -571 2125 -1021 245 -166 251 -170
356 -253 272 -214 435 -361 535 -481 84 -101 94 -125 108 -243 l12 -102 190 0
190 0 13 105 c17 137 28 154 270 391 176 174 401 360 570 472 31 20 66 44 77
53 43 34 227 155 354 233 638 393 1342 706 1965 876 116 31 383 93 479 110
l37 7 0 149 c0 82 -1 149 -3 149 -2 0 -75 -14 -163 -31 -579 -112 -1180 -309
-1729 -567 -88 -41 -174 -83 -190 -92 -17 -10 -107 -56 -200 -103 -256 -129
-770 -443 -1011 -617 -55 -39 -109 -79 -122 -88 -92 -66 -317 -254 -418 -348
l-121 -113 -69 70 c-38 39 -119 112 -179 163 -61 51 -116 101 -124 110 -7 9
-18 16 -23 16 -6 0 -25 12 -43 28 -17 15 -42 34 -55 42 -12 8 -28 20 -34 25
-18 17 -244 175 -336 236 -874 578 -1830 999 -2709 1193 -132 29 -357 76 -366
76 -1 0 -5 -17 -9 -37z"/>
</g>
</svg>
