<?xml version="1.0" standalone="no"?>
<!DOCTYPE svg PUBLIC "-//W3C//DTD SVG 20010904//EN"
 "http://www.w3.org/TR/2001/REC-SVG-20010904/DTD/svg10.dtd">
<svg version="1.0" xmlns="http://www.w3.org/2000/svg"
 width="200.000000pt" height="200.000000pt" viewBox="0 0 200.000000 200.000000"
 preserveAspectRatio="xMidYMid meet">
<metadata>
Created by potrace 1.16, written by Peter Selinger 2001-2019
</metadata>
<g transform="translate(0.000000,200.000000) scale(0.100000,-0.100000)"
fill="#000000" stroke="none">
<path d="M870 1864 c-161 -25 -285 -73 -426 -166 -55 -37 -117 -85 -137 -107
l-37 -41 0 -238 c0 -131 3 -441 7 -689 l6 -451 724 2 723 1 0 25 c0 14 3 323
6 686 l7 661 -43 47 c-40 43 -164 132 -240 171 -55 29 -197 74 -283 90 -71 13
-242 18 -307 9z m317 -29 c91 -17 197 -52 263 -85 73 -37 186 -119 231 -167
l41 -45 -7 -666 c-4 -367 -8 -668 -9 -668 0 -1 -317 -4 -703 -6 l-703 -4 0
315 c0 174 -3 478 -6 676 l-7 360 55 52 c56 52 158 123 234 161 55 28 197 73
258 82 90 13 271 11 353 -5z"/>
<path d="M865 1819 c-4 -6 3 -13 15 -16 28 -7 7 -23 -31 -23 -55 0 -279 -81
-279 -101 0 -4 10 -9 23 -11 12 -2 21 -9 20 -16 -2 -6 2 -12 7 -12 6 0 10 7
10 15 0 22 18 18 25 -6 4 -11 9 -18 12 -15 3 2 -2 19 -11 37 -18 35 -14 43 24
54 24 7 24 7 8 -12 -23 -25 -23 -33 1 -33 10 0 24 -7 31 -15 20 -24 22 -12 5
28 -14 34 -14 37 4 47 29 15 36 12 18 -8 -19 -20 -13 -32 14 -32 10 0 23 -8
29 -17 9 -15 10 -14 4 7 -4 14 -9 31 -11 38 -3 6 0 12 6 12 6 0 11 -7 11 -15
0 -8 5 -15 10 -15 16 0 11 30 -6 37 -13 5 -13 7 -2 14 22 14 26 11 33 -31 4
-22 11 -43 17 -46 6 -4 8 1 5 12 -21 68 -20 71 12 76 l31 5 -22 -24 c-18 -19
-19 -23 -5 -23 9 0 25 -9 35 -21 20 -20 20 -20 15 25 -4 31 -2 46 6 46 6 0 11
-17 11 -40 0 -22 3 -40 8 -40 11 0 6 84 -7 108 -13 24 -64 31 -76 11z m60 -10
c11 -16 2 -17 -25 -2 -24 12 -24 13 -3 13 12 0 25 -5 28 -11z m-15 -69 c0 -5
-2 -10 -4 -10 -3 0 -8 5 -11 10 -3 6 -1 10 4 10 6 0 11 -4 11 -10z m-200 -40
c0 -5 -4 -10 -10 -10 -5 0 -10 5 -10 10 0 6 5 10 10 10 6 0 10 -4 10 -10z
m-80 -10 c0 -5 -7 -10 -16 -10 -8 0 -12 5 -9 10 3 6 10 10 16 10 5 0 9 -4 9
-10z"/>
<path d="M1010 1789 c0 -5 8 -9 18 -9 16 -1 15 -2 -2 -15 -18 -14 -18 -15 5
-34 26 -21 39 -13 39 27 0 12 3 22 8 22 4 0 6 -19 5 -42 l-2 -43 10 38 c10 33
14 37 44 37 19 0 37 -5 41 -11 4 -7 -3 -10 -17 -9 -41 4 -49 1 -49 -19 0 -21
17 -37 28 -26 3 3 0 10 -8 15 -20 12 -6 23 19 15 14 -4 21 -15 22 -33 1 -21 4
-18 12 16 10 42 20 49 45 33 10 -6 8 -10 -9 -14 -22 -6 -22 -7 -6 -25 9 -10
17 -24 17 -30 0 -7 5 -12 10 -12 6 0 10 9 10 19 0 11 5 23 12 27 8 5 9 2 5 -9
-4 -11 -1 -17 8 -17 18 0 19 21 3 39 -11 11 -8 12 12 6 19 -5 21 -4 10 4 -35
25 -290 68 -290 50z m45 -39 c3 -5 1 -10 -4 -10 -6 0 -11 5 -11 10 0 6 2 10 4
10 3 0 8 -4 11 -10z"/>
<path d="M1390 1739 c0 -7 8 -18 18 -26 16 -14 16 -14 0 -9 -10 3 -26 9 -35
13 -16 6 -16 5 -5 -10 8 -9 10 -22 6 -28 -4 -7 0 -17 10 -25 12 -8 14 -14 6
-19 -14 -9 -26 3 -33 30 -3 12 -5 8 -4 -10 2 -23 7 -31 25 -33 25 -4 41 23 23
41 -26 26 1 38 33 14 18 -13 18 -15 1 -40 -18 -28 -13 -47 11 -47 8 0 14 -7
14 -16 0 -11 8 -14 28 -12 22 2 27 8 27 31 -1 31 -1 31 27 16 44 -24 5 12 -52
47 -33 20 -60 42 -60 48 0 6 -9 19 -20 29 -11 9 -20 12 -20 6z m105 -98 c3 -5
1 -12 -4 -15 -5 -3 -11 1 -15 9 -6 16 9 21 19 6z m-36 -27 c-6 -7 -15 -11 -21
-8 -5 3 -4 12 3 20 6 7 15 11 21 8 5 -3 4 -12 -3 -20z m41 -24 c0 -11 -7 -20
-15 -20 -18 0 -19 12 -3 28 16 16 18 15 18 -8z"/>
<path d="M880 1700 c0 -5 5 -10 10 -10 6 0 10 5 10 10 0 6 -4 10 -10 10 -5 0
-10 -4 -10 -10z"/>
<path d="M940 1649 c-137 -12 -285 -65 -384 -138 l-56 -42 0 -188 c0 -146 3
-191 13 -200 8 -6 38 -16 68 -21 141 -27 233 -67 317 -137 57 -49 65 -71 10
-30 -56 43 -174 96 -271 122 -144 39 -138 41 -136 -62 1 -49 3 -109 6 -134 l4
-45 62 -13 c146 -30 331 -142 405 -245 24 -33 27 -44 18 -58 -8 -13 -7 -21 1
-29 17 -17 35 0 29 27 -17 68 132 214 269 263 33 12 94 27 135 34 l75 13 3
122 3 123 -38 -6 c-131 -23 -320 -94 -387 -147 -67 -52 -73 -54 -36 -14 61 66
203 132 407 191 51 14 53 22 53 236 l0 199 -70 45 c-173 113 -312 150 -500
134z m234 -35 c81 -16 170 -56 255 -114 l61 -41 0 -104 0 -105 -245 0 -244 0
-3 185 c-2 102 -2 189 0 195 4 10 77 4 176 -16z m-276 -132 c2 -6 -3 -12 -12
-12 -13 0 -16 -13 -16 -75 0 -41 -3 -75 -7 -75 -4 0 -19 12 -34 26 l-27 26
-21 -21 c-42 -42 -110 -20 -142 45 -27 57 -19 82 9 28 25 -49 68 -72 101 -54
22 11 28 44 11 55 -6 3 -17 -1 -25 -9 -9 -8 -22 -13 -30 -10 -21 8 -19 41 3
53 13 8 8 10 -25 11 -47 0 -80 10 -65 19 6 3 70 6 143 6 97 0 133 -3 137 -13z
m102 -438 l0 -186 -61 56 c-99 92 -181 132 -339 165 l-75 16 -3 68 -3 67 241
0 240 0 0 -186z m257 174 c11 15 12 15 13 -6 0 -13 4 -20 10 -17 6 3 10 -1 10
-10 0 -11 5 -15 15 -11 22 8 19 -18 -5 -39 -11 -10 -41 -19 -73 -22 -47 -4
-59 -1 -83 21 -32 27 -25 48 9 27 20 -13 21 -13 9 2 -10 12 -11 21 -3 34 6 10
11 13 11 7 0 -5 6 -18 13 -29 13 -16 14 -15 9 14 -3 26 -1 30 12 25 10 -4 16
-1 17 7 0 10 3 9 12 -3 10 -15 12 -15 24 0z m-67 -138 c-14 -4 -19 -8 -12 -9
23 -2 12 -21 -13 -21 -14 0 -25 5 -25 10 0 6 6 10 13 10 8 0 7 4 -3 10 -11 7
-4 9 25 9 35 -1 37 -2 15 -9z m144 -6 c3 -8 1 -14 -4 -14 -6 0 -10 5 -10 10 0
6 -5 10 -11 10 -6 0 -9 -6 -6 -14 8 -20 -13 -36 -49 -36 -38 0 -66 26 -43 40
8 6 15 6 17 0 2 -6 8 -8 13 -4 5 3 9 0 9 -5 0 -6 5 -11 12 -11 9 0 9 3 0 12
-20 20 -14 25 27 25 25 0 42 -5 45 -13z m-704 -77 c122 -34 245 -96 313 -159
l58 -53 -3 -127 -3 -127 -55 52 c-90 85 -181 138 -327 187 l-88 29 -3 111 c-2
85 0 110 10 110 7 0 51 -11 98 -23z m860 -111 l0 -105 -47 -6 c-143 -19 -269
-80 -360 -174 l-63 -64 0 122 c0 118 1 123 26 146 36 33 151 101 204 120 42
16 215 63 233 65 4 0 7 -47 7 -104z"/>
<path d="M1153 1495 c-18 -8 -45 -26 -59 -40 -30 -31 -23 -45 39 -76 77 -40
158 -36 236 12 l34 20 -34 35 c-59 62 -144 81 -216 49z m44 -23 c-34 -38 -8
-92 44 -92 38 0 66 39 49 70 -16 30 -6 35 29 14 58 -34 47 -62 -31 -86 -67
-20 -205 26 -184 60 9 15 76 51 95 52 11 0 11 -4 -2 -18z"/>
<path d="M781 1472 l-23 -4 21 -14 c12 -9 21 -23 21 -33 0 -10 9 -26 20 -36
20 -18 20 -17 20 38 0 60 2 58 -59 49z"/>
<path d="M782 1200 c-64 -39 -65 -115 -3 -157 39 -27 71 -29 110 -8 66 33 64
137 -3 169 -44 21 -64 20 -104 -4z m115 -12 c15 -12 17 -34 4 -42 -9 -6 -71
48 -71 61 0 8 53 -7 67 -19z m-109 -35 c-3 -39 -24 -56 -34 -28 -7 18 14 65
28 65 5 0 8 -17 6 -37z m62 12 c26 -28 20 -43 -20 -47 -19 -2 -26 2 -28 20 -4
27 4 52 16 52 5 0 19 -11 32 -25z m66 -81 c-9 -33 -26 -30 -26 4 0 33 23 63
28 37 2 -9 1 -27 -2 -41z m-108 -15 c17 -21 20 -29 9 -29 -20 0 -67 39 -67 55
0 21 32 6 58 -26z m72 17 c0 -34 -16 -41 -45 -22 -31 20 -32 33 -2 39 43 8 47
7 47 -17z"/>
<path d="M483 1633 c-13 -8 -23 -22 -23 -29 0 -17 17 -18 23 -1 3 6 6 2 6 -11
1 -19 5 -22 24 -17 15 5 19 4 12 -3 -5 -5 -19 -12 -30 -15 -13 -3 -9 -5 13 -6
22 -1 32 4 32 14 0 9 6 12 17 8 19 -7 20 -9 -29 49 -22 25 -24 26 -45 11z m40
-36 c-7 -11 -23 2 -23 19 0 12 2 12 14 2 8 -7 12 -16 9 -21z"/>
<path d="M398 1571 c-24 -24 -23 -37 4 -44 28 -8 34 -2 18 18 -19 23 4 18 25
-5 10 -11 23 -20 28 -20 6 0 -2 14 -18 30 -28 29 -24 43 5 18 12 -11 12 -10 1
5 -17 22 -41 21 -63 -2z"/>
<path d="M1606 1556 c2 -6 -9 -17 -26 -24 -16 -8 -30 -18 -30 -23 0 -4 16 1
36 13 36 21 37 21 50 3 25 -34 17 -51 -11 -25 -14 13 -26 22 -27 19 -2 -2 -11
-19 -21 -38 -17 -32 -17 -33 0 -26 45 17 73 18 73 1 0 -11 -9 -16 -29 -16 -16
0 -31 -6 -35 -15 -3 -8 -1 -15 3 -15 5 0 16 -3 25 -6 11 -4 16 -1 16 10 0 9 5
16 10 16 6 0 10 -10 10 -22 0 -21 -5 -23 -45 -22 -33 0 -42 -2 -35 -11 5 -7 7
-15 3 -18 -3 -4 12 -7 35 -7 41 0 42 -1 42 -35 0 -21 -5 -35 -12 -35 -9 0 -8
-4 2 -10 13 -8 13 -10 -2 -10 -13 0 -16 7 -11 34 3 20 1 36 -6 40 -6 4 -11 4
-10 -1 5 -28 -3 -43 -23 -44 -23 0 -23 0 1 -10 l24 -9 -23 -25 c-15 -16 -18
-25 -10 -25 7 0 18 7 24 16 14 18 50 8 42 -12 -3 -7 -1 -16 4 -19 11 -7 12 9
10 190 -1 66 -5 124 -11 130 -5 5 -9 15 -9 23 0 22 28 -4 33 -31 4 -19 4 -18
6 4 0 15 -5 31 -11 37 -18 14 -68 12 -62 -2z m9 -65 c3 -5 1 -12 -5 -16 -5 -3
-10 1 -10 9 0 18 6 21 15 7z m30 -121 c4 -6 -6 -10 -22 -10 -22 0 -25 2 -13
10 19 12 27 12 35 0z"/>
<path d="M345 1500 c-2 -3 -3 -53 -3 -113 1 -86 -2 -111 -15 -125 -40 -44 -10
-71 68 -61 l50 6 -42 1 c-37 2 -43 5 -43 23 0 18 3 19 14 10 12 -10 20 -9 42
5 18 13 22 19 13 23 -8 2 -17 8 -20 14 -6 9 -13 8 -43 -4 -5 -2 -10 4 -12 13
-2 15 3 17 36 12 36 -6 62 8 45 24 -3 3 -10 0 -15 -7 -7 -12 -13 -12 -39 -1
-17 7 -31 16 -31 21 0 13 14 11 28 -3 7 -7 12 -10 13 -7 0 2 2 15 5 28 4 20 1
23 -16 18 -14 -3 -20 -1 -17 6 2 7 21 15 43 18 l39 6 -45 3 c-26 2 -35 5 -22
7 12 2 20 9 16 14 -3 6 0 17 7 25 10 12 14 12 22 2 6 -9 7 -8 3 4 -3 10 2 21
11 27 12 6 2 10 -36 12 -29 2 -54 2 -56 -1z m60 -20 c-3 -5 -10 -10 -16 -10
-5 0 -9 5 -9 10 0 6 7 10 16 10 8 0 12 -4 9 -10z m-25 -37 c0 -24 -25 -9 -28
17 -3 21 -2 22 12 11 9 -7 16 -20 16 -28z m-44 -220 c-11 -11 -17 4 -9 23 7
18 8 18 11 1 2 -10 1 -21 -2 -24z"/>
<path d="M418 1423 c7 -3 16 -2 19 1 4 3 -2 6 -13 5 -11 0 -14 -3 -6 -6z"/>
<path d="M1574 1329 c-3 -6 -2 -15 4 -21 6 -6 11 -2 15 11 5 22 -7 29 -19 10z"/>
<path d="M370 316 l0 -95 633 5 c347 3 637 7 644 9 6 2 10 12 8 22 -2 10 -4
48 -4 86 l-1 67 -640 0 -640 0 0 -94z m823 75 l437 -1 0 -70 0 -70 -332 0
c-183 -1 -462 -3 -620 -7 l-288 -5 0 75 0 76 43 4 c23 2 105 2 182 1 77 -1
337 -3 578 -3z"/>
<path d="M598 383 c-10 -2 -18 -9 -18 -14 0 -5 -31 -9 -70 -9 -40 0 -70 -4
-70 -10 0 -5 8 -10 18 -11 14 0 14 -2 -3 -9 -20 -9 -7 -15 24 -10 9 1 12 -4 8
-14 -4 -10 4 -23 23 -36 17 -12 30 -17 30 -12 0 6 -6 12 -12 15 -10 3 -10 7
-1 18 8 10 9 20 3 29 -14 21 -12 30 5 30 10 0 15 -11 15 -35 0 -19 5 -35 11
-35 7 0 8 11 4 29 -3 17 -2 32 4 36 7 4 11 -5 11 -24 0 -16 5 -33 10 -36 6 -4
10 -3 9 2 -1 4 -1 25 0 46 1 33 4 37 29 37 21 0 24 2 12 10 -8 5 -17 9 -20 9
-3 -1 -13 -3 -22 -6z m-91 -49 c-3 -3 -12 -4 -19 -1 -8 3 -5 6 6 6 11 1 17 -2
13 -5z m18 -34 c-3 -5 -13 -10 -21 -10 -8 0 -12 5 -9 10 3 6 13 10 21 10 8 0
12 -4 9 -10z"/>
<path d="M1297 367 c-3 -7 1 -21 8 -30 12 -17 13 -17 19 0 6 14 9 15 16 4 4
-8 15 -11 24 -8 9 4 16 2 16 -3 0 -6 -10 -10 -22 -11 -21 -1 -20 -2 7 -15 l30
-15 -27 4 c-16 2 -28 0 -28 -4 0 -5 11 -9 24 -9 13 0 31 -3 39 -6 12 -4 16 5
19 40 2 32 -1 46 -9 46 -7 0 -14 -12 -14 -27 -2 -24 -2 -25 -6 -5 -3 13 -12
22 -23 22 -10 0 -26 3 -35 6 -13 5 -14 8 -3 15 9 6 7 9 -8 9 -12 0 -24 -6 -27
-13z"/>
<path d="M1350 376 c0 -2 9 -6 20 -9 11 -3 18 -1 14 4 -5 9 -34 13 -34 5z"/>
<path d="M617 347 c-9 -7 -9 -10 1 -14 6 -2 9 -9 6 -14 -3 -6 4 -7 19 -4 21 6
26 3 30 -17 3 -15 5 -10 6 15 1 32 4 37 26 37 18 0 23 -4 19 -15 -4 -9 0 -15
10 -15 9 0 16 -5 16 -11 0 -7 -10 -9 -26 -5 -19 5 -25 3 -22 -6 3 -7 16 -13
29 -13 20 0 24 5 23 30 0 17 4 33 10 38 6 4 -22 6 -62 5 -40 -1 -78 -6 -85
-11z m38 -7 c3 -5 2 -10 -4 -10 -5 0 -13 5 -16 10 -3 6 -2 10 4 10 5 0 13 -4
16 -10z"/>
<path d="M900 350 c0 -5 9 -14 20 -20 11 -6 20 -17 20 -24 0 -9 -7 -12 -20 -9
-11 3 -20 1 -20 -5 0 -15 37 -21 49 -9 17 17 13 31 -12 55 -25 24 -37 28 -37
12z"/>
<path d="M982 324 c2 -28 8 -40 22 -42 23 -5 35 8 42 42 4 24 2 27 -18 25 -13
-2 -29 0 -36 5 -10 6 -13 -1 -10 -30z m46 -11 c-5 -25 -28 -28 -28 -4 0 12 6
21 16 21 9 0 14 -7 12 -17z"/>
<path d="M1080 334 c0 -16 4 -35 9 -43 12 -18 51 -5 51 18 0 9 5 22 12 29 9 9
6 12 -14 12 -15 0 -33 3 -42 6 -12 5 -16 0 -16 -22z m44 -13 c3 -5 -1 -14 -9
-21 -13 -10 -15 -9 -15 9 0 21 14 28 24 12z"/>
<path d="M1185 351 c-3 -6 4 -15 15 -21 22 -12 28 -33 7 -28 -7 2 -15 -1 -17
-7 -3 -5 5 -11 18 -13 30 -5 38 21 15 52 -19 27 -29 31 -38 17z"/>
<path d="M1455 349 c-10 -15 3 -25 16 -12 7 7 7 13 1 17 -6 3 -14 1 -17 -5z"/>
<path d="M795 340 c-3 -5 1 -10 9 -10 9 0 16 5 16 10 0 6 -4 10 -9 10 -6 0
-13 -4 -16 -10z"/>
<path d="M1450 305 c-10 -12 -10 -15 3 -15 19 0 31 16 18 24 -5 3 -14 -1 -21
-9z"/>
<path d="M795 300 c-3 -5 1 -10 9 -10 9 0 16 5 16 10 0 6 -4 10 -9 10 -6 0
-13 -4 -16 -10z"/>
<path d="M1311 294 c0 -11 3 -14 6 -6 3 7 2 16 -1 19 -3 4 -6 -2 -5 -13z"/>
</g>
</svg>
