<?xml version="1.0" standalone="no"?>
<!DOCTYPE svg PUBLIC "-//W3C//DTD SVG 20010904//EN"
 "http://www.w3.org/TR/2001/REC-SVG-20010904/DTD/svg10.dtd">
<svg version="1.0" xmlns="http://www.w3.org/2000/svg"
 width="960.000000pt" height="960.000000pt" viewBox="0 0 960.000000 960.000000"
 preserveAspectRatio="xMidYMid meet">
<metadata>
Created by potrace 1.16, written by Peter Selinger 2001-2019
</metadata>
<g transform="translate(0.000000,960.000000) scale(0.100000,-0.100000)"
fill="#000000" stroke="none">
<path d="M4565 8660 c-192 -9 -307 -22 -474 -56 -322 -65 -572 -137 -772 -223
-287 -123 -354 -155 -439 -206 -50 -30 -93 -55 -96 -55 -9 0 -209 -132 -284
-188 -159 -118 -347 -274 -477 -396 -37 -35 -247 -268 -294 -326 -383 -476
-642 -1000 -779 -1573 -40 -168 -86 -446 -99 -602 -21 -249 -7 -712 28 -900 5
-27 13 -72 16 -100 10 -77 61 -289 109 -458 83 -288 225 -613 383 -874 157
-261 182 -297 379 -549 71 -91 356 -373 491 -486 107 -89 315 -238 458 -329
113 -71 378 -210 505 -264 47 -20 110 -48 140 -62 174 -81 657 -204 915 -232
292 -32 330 -33 585 -28 498 10 873 76 1310 232 344 122 826 394 1105 624 193
159 373 329 486 459 93 108 284 356 356 462 54 80 215 363 254 445 51 108 191
461 222 560 52 164 125 525 148 730 19 163 19 784 1 915 -19 133 -76 416 -107
535 -15 55 -30 111 -33 125 -8 38 -106 314 -143 405 -37 89 -154 321 -232 460
-148 265 -412 600 -664 846 -289 283 -658 540 -1038 724 -220 107 -262 124
-447 185 -484 160 -973 225 -1513 200z m420 -180 c205 -11 254 -16 500 -60
638 -112 1244 -397 1760 -829 133 -111 376 -359 491 -501 224 -276 477 -710
585 -1002 183 -496 259 -901 259 -1388 -1 -360 -64 -791 -162 -1100 -234 -734
-667 -1371 -1246 -1836 -59 -47 -116 -92 -126 -101 -27 -22 -225 -149 -326
-210 -491 -292 -1017 -458 -1593 -504 -86 -7 -249 -9 -412 -6 -292 6 -349 13
-735 92 -257 53 -371 82 -455 115 -41 17 -110 44 -152 61 -150 59 -419 196
-557 283 -554 351 -934 742 -1279 1319 -197 329 -336 684 -427 1092 -66 299
-84 481 -84 830 1 239 4 291 28 455 72 488 178 830 387 1241 179 353 420 682
703 958 200 196 303 279 611 486 194 131 454 268 655 345 47 17 123 47 170 65
126 49 505 139 718 171 59 9 184 19 277 23 94 5 177 9 185 9 8 1 110 -3 225
-8z"/>
<path d="M4350 7920 c-303 -40 -632 -149 -907 -299 -102 -55 -100 -54 -228
-136 -300 -193 -645 -515 -863 -807 -36 -48 -69 -88 -73 -88 -4 0 -31 28 -60
63 -28 34 -63 72 -76 85 -30 27 -76 29 -103 2 -20 -20 -20 -33 -20 -780 l0
-760 75 0 75 0 0 637 0 638 43 -48 c73 -79 91 -71 215 98 247 339 580 649 937
873 654 411 1384 500 2125 262 570 -184 1195 -591 1761 -1146 110 -108 118
-114 157 -114 l42 0 0 -418 c0 -231 3 -501 7 -600 l6 -182 74 0 73 0 -1 238
c0 130 -4 459 -8 731 l-8 494 -22 18 c-46 38 -100 20 -131 -42 -12 -22 -28
-43 -36 -46 -10 -3 -47 26 -107 84 -596 582 -1321 1023 -1935 1177 -335 85
-697 108 -1012 66z"/>
<path d="M4396 7531 c6 -50 5 -53 -12 -46 -11 5 -37 7 -60 6 -35 -1 -42 2 -52
24 -12 26 -32 34 -32 12 0 -7 15 -82 34 -167 19 -85 33 -157 30 -159 -2 -2
-15 4 -30 13 -20 14 -24 23 -19 39 4 12 10 41 12 65 5 39 2 46 -35 82 -22 22
-45 40 -51 40 -7 0 -17 -14 -23 -31 -9 -26 -14 -30 -35 -24 -49 12 -71 -41
-35 -85 25 -31 65 -21 95 25 26 41 37 44 37 11 0 -29 -40 -73 -74 -82 -14 -3
-26 -9 -26 -13 1 -14 80 -71 100 -71 43 0 86 -30 116 -80 16 -27 32 -50 37
-50 9 0 12 -13 -28 179 -19 93 -35 178 -35 189 0 22 39 37 70 27 28 -9 35 -39
76 -317 6 -41 44 -86 44 -52 0 10 -12 101 -26 202 -15 100 -25 185 -22 187 7
7 104 23 170 28 l56 4 4 -66 c2 -36 3 -68 1 -70 -1 -2 -14 11 -29 28 -22 27
-33 32 -63 29 -30 -3 -39 -9 -54 -40 -31 -63 -5 -138 48 -138 31 0 49 32 40
76 -5 28 -3 33 9 28 23 -9 68 -108 73 -162 6 -70 12 -92 24 -92 7 0 9 12 5 33
-3 17 -6 109 -7 202 -2 167 -2 170 19 173 47 7 8 62 -44 62 -16 0 -83 -7 -148
-17 -129 -18 -116 -20 -154 34 -10 15 -11 9 -6 -36z"/>
<path d="M4897 7543 c-3 -5 2 -18 11 -30 14 -18 32 -24 96 -30 44 -4 81 -13
83 -18 2 -6 -12 -16 -31 -23 -46 -17 -126 -79 -126 -98 0 -27 30 -68 66 -92
37 -24 59 -67 69 -137 4 -25 10 -45 14 -45 7 0 23 102 37 231 9 77 19 91 44
60 24 -28 27 -66 5 -57 -17 6 -45 -30 -45 -59 0 -50 56 -61 83 -16 33 57 14
173 -36 214 l-22 19 30 -6 c106 -19 155 -31 155 -38 0 -4 -11 -24 -25 -44 -39
-58 -58 -135 -53 -224 3 -83 22 -120 59 -120 49 0 81 97 40 119 -14 8 -22 6
-35 -8 -9 -9 -16 -23 -16 -30 0 -7 -5 -9 -11 -5 -18 11 -4 107 25 171 28 60
43 76 92 98 27 12 37 11 95 -10 103 -38 159 -64 159 -74 0 -19 -22 -23 -34 -5
-9 11 -21 15 -35 11 -15 -4 -29 2 -46 19 -56 56 -125 0 -129 -105 -1 -62 23
-101 64 -101 32 0 50 22 50 64 0 58 -24 72 -60 34 -20 -21 -20 -21 -20 -1 0
23 29 53 53 53 19 0 47 -37 47 -62 0 -24 17 -23 25 2 7 23 30 27 38 6 3 -7 -8
-51 -25 -97 -17 -46 -35 -100 -41 -120 -11 -37 -3 -80 12 -63 4 5 37 84 72
176 37 96 69 168 77 168 11 0 110 -46 121 -56 3 -3 -6 -12 -18 -21 -68 -47
-64 -183 5 -183 39 0 28 -34 -13 -38 -23 -2 -35 3 -47 20 -20 28 -21 102 -1
158 17 48 19 80 6 80 -5 0 -21 -35 -35 -78 -29 -87 -34 -178 -11 -221 44 -86
170 -10 163 99 -3 44 -4 45 -40 48 -43 4 -51 27 -20 55 27 25 52 22 52 -7 0
-12 13 -40 28 -62 l28 -39 -30 -44 c-35 -52 -75 -147 -76 -178 0 -39 26 -25
40 19 17 57 64 121 112 153 38 25 40 29 33 63 -7 36 -19 52 -41 52 -18 0 -64
40 -64 56 0 22 11 18 86 -31 38 -24 72 -45 77 -45 4 0 7 13 7 29 0 24 -10 35
-67 73 -274 181 -577 303 -878 352 -130 21 -222 29 -228 19z m181 -230 c-12
-77 -14 -82 -26 -53 -5 14 -17 32 -26 39 -9 7 -16 19 -16 26 0 14 60 56 71 50
3 -3 2 -30 -3 -62z"/>
<path d="M3830 7324 c-36 -20 -105 -63 -154 -95 -49 -33 -93 -59 -98 -59 -5 0
-20 7 -33 16 -31 21 -33 4 -4 -37 20 -28 20 -29 1 -29 -33 0 -272 -200 -272
-227 0 -18 68 -16 100 2 43 25 50 20 50 -40 0 -43 4 -57 17 -62 20 -8 64 -7
115 2 30 6 47 2 84 -19 77 -43 74 -37 -64 147 -40 55 -71 105 -68 112 3 8 16
21 30 30 37 25 58 8 137 -113 66 -101 92 -132 111 -132 16 0 6 19 -82 159 -49
79 -90 144 -90 146 0 4 109 75 115 75 3 0 5 -14 5 -30 0 -38 25 -77 59 -94 28
-15 47 -11 74 12 24 22 40 4 24 -28 -27 -53 -119 -23 -167 54 -12 20 -28 36
-36 36 -20 0 -18 -8 13 -49 93 -127 173 -171 219 -120 37 41 17 132 -39 173
l-29 21 -22 -27 c-28 -36 -43 -35 -51 2 -9 40 1 53 27 39 12 -7 40 -9 64 -5
43 6 43 5 53 -32 14 -51 85 -166 105 -170 20 -4 21 21 2 37 -27 22 -59 115
-59 169 0 42 -4 56 -21 67 -28 20 -46 19 -70 -4 -12 -11 -32 -21 -45 -23 -48
-6 -30 19 45 61 70 40 75 45 59 58 -26 18 -32 17 -105 -23z m-310 -397 c30
-39 57 -75 59 -80 1 -4 -19 -7 -45 -5 l-49 3 -3 47 c-3 43 -6 49 -30 54 -15 4
-31 9 -35 11 -10 6 22 43 37 42 6 0 36 -32 66 -72z"/>
<path d="M4515 7018 c-4 -9 -4 -21 -1 -26 10 -16 68 -22 124 -13 29 4 55 5 57
1 3 -4 -41 -14 -96 -21 -78 -10 -105 -10 -120 -1 -17 11 -19 9 -19 -11 0 -20
-5 -24 -33 -25 -45 -2 -180 -52 -287 -107 -47 -25 -96 -45 -108 -45 -25 0 -29
-15 -7 -24 26 -10 16 -26 -15 -26 -24 0 -35 -7 -48 -30 -9 -16 -27 -32 -40
-35 -12 -3 -41 -22 -63 -42 -30 -27 -43 -33 -51 -25 -18 18 15 78 54 102 18
11 50 23 71 26 20 4 37 11 37 17 0 15 -66 1 -119 -25 -73 -36 -121 -134 -74
-152 12 -5 14 -9 5 -18 -28 -28 -1 -39 29 -12 17 15 22 13 78 -30 33 -25 70
-46 83 -46 22 1 21 2 -12 33 -20 17 -51 44 -70 59 l-35 26 30 31 c31 33 50 36
50 6 0 -10 8 -23 18 -29 15 -9 22 -7 35 9 9 11 29 28 45 38 34 22 35 45 1 53
-15 4 -22 10 -16 16 15 15 55 -7 90 -51 18 -22 39 -41 47 -41 18 0 19 14 3 32
-36 38 -78 98 -78 111 0 7 11 19 25 25 34 16 35 15 35 -7 0 -17 18 -31 41 -31
5 0 15 11 21 25 16 36 39 33 32 -5 -8 -36 17 -51 45 -26 22 20 40 20 69 0 31
-21 37 -13 18 24 -16 32 -13 44 10 35 19 -7 44 15 44 38 0 24 -35 42 -65 35
-46 -12 -34 12 14 28 90 29 97 26 122 -54 19 -65 33 -89 45 -77 3 3 -4 39 -14
81 -23 86 -22 88 51 99 35 5 49 -4 27 -18 -15 -9 -12 -35 6 -42 8 -3 29 4 46
17 23 17 33 19 41 10 20 -20 -28 -50 -81 -50 -44 0 -45 -1 -28 -19 10 -11 38
-22 64 -26 26 -3 64 -17 84 -31 20 -13 40 -20 43 -15 5 9 -20 32 -61 57 -18
11 -18 12 6 32 21 17 23 24 15 48 -7 18 -19 30 -33 32 -39 6 -13 22 36 22 43
1 45 2 27 15 -11 8 -28 22 -37 31 -15 14 -31 16 -100 11 -69 -5 -84 -3 -94 11
-12 16 -13 16 -19 0z m-235 -176 c0 -13 -12 -22 -22 -16 -10 6 -1 24 13 24 5
0 9 -4 9 -8z m99 -15 c-2 -1 -12 -9 -21 -16 -15 -12 -18 -11 -18 3 0 10 8 16
22 16 12 0 19 -1 17 -3z m-154 -17 c4 -6 -5 -10 -20 -10 -15 0 -24 4 -20 10 3
6 12 10 20 10 8 0 17 -4 20 -10z m93 -27 c5 -18 -20 -16 -44 2 -18 15 -18 15
10 13 16 -2 31 -9 34 -15z"/>
<path d="M4902 6958 c3 -7 29 -17 59 -22 65 -10 68 -12 43 -31 -19 -15 -19
-15 1 -30 11 -9 31 -14 44 -13 32 4 39 -20 8 -27 -34 -9 -82 18 -97 55 -16 37
-35 40 -25 3 16 -63 71 -104 134 -100 19 2 26 -5 36 -33 l13 -35 21 50 c54
124 47 115 80 104 16 -6 32 -17 35 -25 3 -8 -8 -44 -25 -81 -18 -40 -26 -70
-21 -75 10 -10 33 25 68 99 21 46 26 48 73 32 37 -13 39 -21 8 -38 -28 -15
-45 -41 -52 -81 -4 -24 0 -36 19 -55 29 -29 48 -31 66 -10 18 22 -6 48 -37 40
-35 -8 -30 27 9 60 27 22 39 26 73 23 23 -3 54 -14 70 -24 l29 -19 -34 -3
c-43 -4 -60 -18 -60 -47 0 -21 41 -65 59 -65 41 1 35 57 -7 62 -24 4 -25 5 -8
13 24 11 50 -5 54 -34 2 -15 10 -21 28 -21 35 0 30 -24 -12 -63 -23 -21 -35
-40 -33 -52 3 -15 16 -8 73 42 66 58 71 60 92 46 44 -29 41 -56 -11 -92 -54
-36 -87 -70 -80 -81 4 -6 38 11 80 41 51 35 80 49 93 45 17 -6 19 -1 19 34 0
41 -5 48 -23 30 -8 -8 -31 9 -76 53 -75 74 -189 152 -300 205 -49 23 -79 44
-83 57 -6 19 -6 19 -16 -4 -9 -23 -10 -23 -28 -7 -23 20 -129 50 -256 71 -109
18 -108 18 -103 3z m242 -57 c3 -5 -1 -24 -9 -42 -9 -23 -14 -28 -15 -15 0 11
-10 30 -22 43 l-21 23 31 0 c17 0 33 -4 36 -9z m486 -253 c0 -14 -18 -9 -24 7
-3 8 -11 15 -17 15 -15 0 -49 30 -49 42 0 5 20 -5 45 -23 25 -18 45 -36 45
-41z"/>
<path d="M6408 6932 c-16 -9 -28 -22 -28 -29 0 -18 -20 -16 -42 3 -16 16 -18
15 -25 -1 -4 -11 1 -31 10 -47 l17 -30 -104 -115 c-94 -104 -126 -155 -106
-168 3 -2 58 52 121 120 63 68 119 124 125 124 16 1 161 -145 153 -154 -3 -2
-31 4 -62 15 -31 11 -74 20 -96 20 -38 0 -40 -2 -47 -36 -4 -20 -2 -46 5 -60
18 -40 13 -87 -14 -138 -14 -26 -25 -49 -25 -52 0 -15 31 2 70 39 124 117 175
141 168 80 -2 -22 -8 -27 -23 -25 -63 11 -85 -1 -85 -46 0 -35 44 -48 84 -24
49 29 78 79 74 130 -2 23 0 42 3 42 9 0 110 -132 111 -145 1 -5 -20 -13 -47
-17 -131 -19 -253 -171 -186 -232 14 -13 28 -16 50 -11 37 8 54 27 49 57 -3
20 -9 23 -40 22 -21 -1 -38 2 -38 5 0 4 15 21 33 38 61 58 131 81 196 63 47
-12 93 -56 89 -85 -3 -17 -10 -19 -50 -16 -36 2 -51 -2 -67 -18 -28 -28 -26
-45 4 -69 14 -11 25 -29 25 -41 0 -52 88 -49 112 4 12 27 23 31 33 15 16 -26
-31 -64 -140 -115 -100 -48 -125 -67 -125 -95 0 -4 65 21 145 56 190 84 186
83 208 41 29 -54 16 -66 -140 -125 -90 -34 -143 -60 -151 -73 -19 -30 -8 -35
35 -16 21 8 83 32 138 52 55 20 110 41 123 46 47 19 46 21 106 -130 27 -67 26
-90 -2 -55 -21 25 -98 87 -131 104 -21 11 -26 9 -47 -16 -15 -19 -23 -42 -24
-67 0 -49 -11 -68 -65 -118 -25 -23 -43 -45 -40 -49 3 -5 26 -2 52 6 27 8 96
26 155 39 58 14 113 28 121 31 10 4 21 -4 30 -22 l14 -27 18 26 c17 27 17 29
-18 125 -19 53 -43 119 -53 145 l-19 48 25 19 c35 26 18 36 -30 17 l-40 -15 0
34 c0 20 -5 44 -11 55 -8 16 -7 26 6 45 25 39 14 44 -39 18 -65 -31 -69 -30
-49 10 20 43 12 63 -29 80 -29 13 -32 18 -30 48 3 27 -7 49 -44 103 -90 134
-196 262 -338 412 -70 74 -70 93 2 93 40 0 53 -5 80 -31 34 -34 52 -82 52
-142 0 -27 4 -37 13 -35 16 6 21 96 7 147 -27 102 -137 160 -212 113z m60
-347 c7 -7 -65 -75 -80 -75 -4 0 -7 21 -6 46 l1 46 39 -5 c22 -3 43 -8 46 -12z
m492 -847 c37 -27 38 -46 3 -54 -16 -3 -41 -10 -57 -15 -16 -5 -31 -8 -32 -6
-6 6 41 97 49 97 4 0 21 -10 37 -22z"/>
<path d="M3239 6845 c-30 -16 -49 -60 -49 -112 0 -63 75 -110 100 -63 9 18 6
25 -19 49 -25 24 -29 33 -23 56 11 40 37 54 59 33 16 -16 16 -19 0 -36 -22
-24 -21 -45 1 -65 23 -21 41 -21 63 -1 39 35 61 -25 23 -63 -22 -22 -32 -25
-72 -20 -26 3 -77 16 -113 28 -63 21 -70 21 -120 7 -51 -14 -57 -19 -126 -114
-64 -87 -183 -276 -183 -290 0 -14 48 11 71 37 l26 29 49 -49 c71 -71 189
-103 242 -65 26 18 29 56 6 78 -20 21 -70 21 -78 0 -8 -21 -8 -20 10 -38 14
-15 13 -16 -11 -16 -67 0 -153 74 -162 139 -5 38 -1 49 41 111 67 98 67 98
123 62 35 -23 43 -33 32 -37 -9 -3 -20 -5 -25 -4 -40 7 -84 -29 -84 -70 0 -32
32 -66 72 -76 19 -5 32 -1 47 14 28 28 26 45 -4 69 -34 27 -32 32 15 32 44 0
112 -24 149 -52 25 -19 41 -23 41 -10 0 4 -58 50 -130 102 -71 52 -129 100
-130 106 0 6 7 17 15 24 13 10 29 7 93 -17 190 -75 282 -65 282 28 0 30 -7 45
-34 71 -56 53 -66 64 -101 102 -36 39 -55 43 -96 21z"/>
<path d="M5922 6778 c-16 -21 -23 -56 -12 -63 20 -13 9 -35 -25 -49 -36 -15
-47 -36 -20 -36 46 0 125 72 125 114 0 40 -45 62 -68 34z"/>
<path d="M3543 6764 c-9 -24 10 -49 41 -52 22 -3 26 1 26 20 0 43 -53 68 -67
32z"/>
<path d="M4737 6643 c-4 -3 -7 -73 -7 -155 l0 -148 35 0 35 0 0 155 0 155 -28
0 c-16 0 -32 -3 -35 -7z"/>
<path d="M4483 6403 c-13 -8 -23 -21 -23 -28 0 -7 27 -42 61 -78 60 -67 61
-67 84 -49 14 9 24 24 24 32 0 13 -111 141 -121 139 -1 0 -13 -7 -25 -16z"/>
<path d="M4968 6356 c-32 -36 -58 -70 -58 -78 0 -7 12 -21 25 -31 24 -17 25
-17 54 15 71 79 91 104 91 114 0 10 -42 45 -52 44 -2 -1 -29 -29 -60 -64z"/>
<path d="M4139 6273 c-5 -14 -8 -31 -6 -37 3 -6 80 -51 173 -100 l168 -89 18
23 c10 12 18 28 18 36 0 7 -57 42 -127 78 -71 35 -148 76 -173 90 -56 32 -58
32 -71 -1z"/>
<path d="M5208 6212 c-92 -49 -171 -91 -174 -95 -9 -9 16 -67 29 -67 9 0 104
49 275 142 45 25 72 46 72 56 -1 16 -22 52 -31 52 -2 -1 -79 -40 -171 -88z"/>
<path d="M4694 6139 c-28 -29 -29 -34 -29 -122 1 -69 7 -108 24 -157 34 -97
62 -160 72 -160 4 0 24 33 43 73 103 214 83 397 -44 397 -27 0 -44 -8 -66 -31z"/>
<path d="M2669 6137 c-14 -8 -50 -16 -81 -20 -64 -6 -133 -38 -166 -76 -58
-67 -67 -172 -16 -192 39 -14 73 8 111 74 31 52 53 72 53 47 0 -6 -17 -52 -38
-103 -21 -50 -47 -114 -58 -142 -11 -27 -26 -51 -34 -51 -8 -1 -23 -2 -32 -3
-33 -2 -18 -21 22 -27 22 -4 40 -9 40 -11 0 -3 -9 -12 -21 -22 -11 -9 -25 -35
-29 -56 -39 -188 -60 -308 -56 -312 11 -11 77 49 96 88 18 35 40 52 40 32 0
-5 15 -26 34 -48 l33 -39 42 18 c22 11 41 24 41 29 0 6 11 25 25 42 19 25 39
37 90 50 36 10 65 22 65 26 0 5 -3 9 -6 9 -4 0 -61 11 -128 24 -66 14 -142 28
-169 31 -26 4 -50 11 -53 16 -3 5 0 25 6 44 19 56 67 58 253 10 76 -20 101
-23 124 -14 22 8 25 12 13 19 -20 11 -303 80 -329 80 -28 0 -27 22 4 106 45
122 67 164 87 164 23 0 23 -5 -2 -30 -15 -15 -18 -25 -11 -37 7 -13 2 -23 -20
-44 -36 -34 -37 -61 -2 -94 68 -62 193 -36 193 40 0 29 -19 45 -51 45 -58 0
-76 -25 -42 -62 15 -17 15 -18 -5 -18 -11 0 -28 10 -36 22 -13 19 -14 25 -2
43 7 11 26 22 41 25 35 6 43 26 16 35 -12 3 -21 12 -21 20 0 28 39 25 128 -10
93 -36 157 -46 150 -23 -5 13 -52 33 -218 94 -52 19 -99 39 -103 43 -10 10 19
71 32 71 5 0 74 -27 153 -60 147 -62 188 -71 188 -45 0 8 -4 15 -10 15 -5 0
-33 11 -62 24 -29 13 -97 43 -151 66 -68 30 -96 47 -92 57 3 7 8 20 11 28 8
19 -12 19 -47 2z m-54 -67 c13 -22 -15 -50 -51 -50 -42 0 -78 -32 -109 -98
-25 -53 -39 -54 -32 -3 11 83 78 143 179 160 4 0 10 -3 13 -9z m-22 -621 c48
-7 87 -17 87 -21 0 -4 -4 -8 -10 -8 -5 0 -25 -14 -44 -30 l-34 -31 -27 36
c-31 39 -43 42 -86 19 -37 -19 -41 -16 -33 25 6 29 10 32 33 28 14 -3 65 -11
114 -18z"/>
<path d="M4220 5965 l0 -35 140 0 140 0 0 35 0 35 -140 0 -140 0 0 -35z"/>
<path d="M5040 5965 l0 -35 140 0 140 0 0 35 0 35 -140 0 -140 0 0 -35z"/>
<path d="M3468 5913 c-25 -6 -22 -16 11 -36 205 -121 276 -301 288 -732 7
-249 23 -316 122 -512 68 -135 173 -264 277 -340 68 -50 69 -51 79 -131 6 -41
4 -51 -7 -47 -7 2 -65 20 -128 39 -63 19 -135 41 -160 49 -103 34 -641 193
-935 277 -261 75 -565 151 -576 144 -5 -3 8 -26 30 -50 51 -58 153 -206 209
-304 182 -313 318 -747 367 -1169 9 -75 19 -163 23 -196 l7 -59 65 -18 c36 -9
153 -42 260 -72 107 -31 236 -67 285 -80 50 -14 152 -43 228 -64 l139 -40 13
32 c10 23 10 33 2 38 -7 3 -214 63 -462 133 -247 70 -453 130 -457 133 -4 4
-12 57 -18 117 -22 214 -79 502 -142 710 -63 208 -208 528 -307 675 -28 41
-51 80 -51 86 0 11 56 -2 265 -60 142 -39 532 -152 662 -192 65 -20 134 -41
153 -46 19 -5 100 -30 180 -55 80 -25 197 -61 260 -80 63 -20 116 -37 118 -38
2 -2 7 -29 12 -61 22 -150 109 -655 115 -663 3 -6 30 -18 60 -27 61 -20 63
-34 4 -34 l-39 0 0 -58 c0 -44 -9 -80 -39 -152 -81 -199 -184 -383 -222 -395
-10 -4 -19 -10 -19 -15 0 -5 37 -67 82 -137 253 -398 384 -618 442 -744 l34
-76 -38 -36 c-44 -41 -56 -82 -40 -132 23 -69 103 -109 173 -86 99 33 127 142
56 213 -16 16 -29 33 -29 38 0 33 248 500 371 699 35 57 88 129 117 158 l52
55 -78 126 c-137 221 -192 356 -192 475 0 75 2 74 -97 68 -70 -4 -49 14 37 33
44 9 80 19 80 22 0 5 80 448 111 616 l22 118 101 31 c56 17 142 44 191 59 181
57 354 109 510 155 88 26 171 51 185 55 33 12 314 90 462 130 65 17 130 35
144 40 14 6 29 8 34 5 4 -3 -18 -44 -50 -92 -223 -336 -393 -847 -447 -1343
-9 -85 -19 -158 -22 -162 -3 -3 -136 -43 -296 -87 -159 -45 -312 -87 -340 -95
-27 -8 -102 -29 -165 -47 -63 -18 -119 -35 -123 -39 -5 -4 -2 -21 5 -37 l13
-30 175 49 c96 27 272 75 390 108 118 33 260 73 315 88 l100 29 8 69 c28 247
40 341 58 429 84 419 222 774 412 1060 33 50 63 92 66 95 20 17 91 110 91 119
0 13 12 16 -245 -50 -277 -70 -729 -201 -1272 -368 -145 -45 -268 -81 -274
-81 -8 0 -9 12 -3 38 4 20 8 50 8 66 1 23 13 38 57 72 158 121 284 310 361
537 29 88 31 102 38 317 15 428 72 583 263 712 72 49 65 56 -53 57 -302 2
-521 -199 -620 -569 -17 -63 -44 -142 -59 -175 -27 -57 -83 -125 -102 -125 -5
0 -9 19 -9 43 0 63 -26 151 -67 229 -38 73 -154 212 -222 266 l-41 33 0 -766
0 -765 38 0 c57 0 177 36 272 83 107 52 120 57 120 53 0 -3 -48 -42 -106 -88
-208 -164 -334 -241 -393 -241 -62 0 -164 62 -348 210 -93 75 -121 109 -60 73
66 -38 235 -90 296 -90 l31 0 0 729 c0 401 3 743 6 760 11 54 -18 37 -117 -68
-141 -148 -211 -282 -210 -403 0 -69 -13 -74 -58 -23 -46 52 -76 119 -106 231
-45 171 -87 267 -158 364 -80 109 -203 192 -332 225 -55 14 -187 19 -227 8z
m272 -104 c159 -60 292 -229 351 -444 59 -218 98 -298 174 -361 52 -42 96 -56
150 -49 29 5 36 3 25 -4 -23 -17 -91 -12 -136 8 -22 10 -58 36 -79 57 -40 41
-108 174 -120 234 -10 55 -65 220 -86 261 -58 114 -153 218 -238 261 -30 15
-56 26 -58 25 -1 -2 15 -39 37 -83 69 -142 100 -320 100 -587 0 -188 11 -239
87 -407 81 -179 221 -332 395 -433 58 -33 220 -97 230 -91 10 7 10 1184 1
1184 -12 0 -78 -100 -103 -155 -31 -68 -38 -161 -15 -204 18 -36 15 -51 -5
-26 -24 28 -30 105 -14 175 15 67 68 165 127 232 l32 38 0 -633 0 -632 -21 3
c-51 7 -194 65 -268 109 -107 64 -245 202 -314 313 -90 146 -155 338 -145 431
8 82 -15 382 -37 484 -29 131 -75 239 -128 298 -20 22 -9 22 58 -4z m2073 -1
c-103 -113 -150 -306 -162 -658 -8 -217 -9 -228 -40 -315 -53 -153 -169 -355
-203 -355 -6 0 -4 8 3 19 93 127 143 220 195 366 27 76 28 91 35 315 7 239 15
302 61 458 11 39 25 72 29 72 5 0 9 6 9 14 0 7 7 19 15 26 8 7 15 21 15 31 0
17 -2 17 -39 1 -88 -40 -193 -148 -241 -247 -13 -27 -31 -66 -40 -85 -10 -19
-23 -60 -30 -90 -24 -103 -53 -185 -99 -279 -22 -46 -105 -118 -149 -131 -45
-12 -122 -13 -122 -1 0 4 24 8 53 7 128 -1 218 105 282 336 50 178 72 230 132
321 65 96 154 168 251 203 57 20 69 18 45 -8z m-787 -546 c44 -90 57 -198 30
-250 -9 -18 -21 -32 -27 -32 -5 0 -4 12 4 28 44 87 18 205 -73 330 -17 24 -33
42 -35 40 -9 -9 -8 -1183 1 -1181 5 0 46 13 91 28 98 31 240 118 318 194 30
30 59 51 63 46 17 -17 -164 -159 -273 -213 -63 -32 -199 -82 -221 -82 -2 0 -4
285 -4 633 l1 632 45 -50 c25 -27 61 -83 80 -123z m139 -1234 c-5 -21 -56
-301 -90 -493 -24 -135 -32 -176 -36 -179 -2 -2 -49 -14 -104 -27 l-100 -24 0
-105 0 -105 50 -2 c28 -2 69 -5 92 -8 41 -6 42 -7 58 -63 23 -77 102 -238 169
-346 31 -48 53 -93 49 -100 -4 -6 -23 -31 -43 -56 -78 -95 -250 -393 -378
-652 -37 -75 -70 -136 -74 -135 -4 1 -35 58 -71 127 -58 114 -175 309 -374
624 -74 118 -74 118 -55 140 44 48 148 255 203 402 19 50 21 52 66 58 25 3 72
6 104 6 l59 0 0 93 0 93 -114 37 -114 38 -17 92 c-9 51 -21 117 -26 147 -44
248 -74 450 -67 450 5 0 37 -21 71 -47 133 -103 241 -161 315 -170 45 -5 59
-1 128 33 42 22 125 74 183 116 58 42 109 77 114 77 4 1 5 -9 2 -21z m-367
-2460 c7 -7 12 -24 12 -40 0 -30 -23 -48 -61 -48 -49 0 -80 67 -41 89 24 14
75 14 90 -1z"/>
<path d="M4691 2273 c-119 -59 -76 -223 59 -223 79 0 130 45 130 116 0 49 -28
90 -76 110 -43 18 -71 17 -113 -3z m97 -75 c21 -21 14 -57 -13 -70 -48 -22
-103 45 -57 71 23 14 55 14 70 -1z"/>
<path d="M4723 2175 c-7 -19 13 -36 37 -32 8 1 15 11 15 22 0 26 -42 34 -52
10z"/>
<path d="M4711 1542 c-14 -26 8 -45 46 -40 22 2 28 8 28 28 0 21 -5 26 -32 28
-23 2 -34 -2 -42 -16z"/>
<path d="M4105 5809 c-4 -17 -3 -34 1 -39 9 -7 238 -30 307 -30 36 0 37 1 37
35 0 31 -3 35 -32 40 -27 4 -272 25 -299 25 -4 0 -10 -14 -14 -31z"/>
<path d="M5230 5825 c-74 -7 -136 -14 -137 -14 -2 -1 -3 -17 -3 -36 l0 -35 48
1 c86 1 297 24 295 32 -2 4 -3 21 -3 37 0 35 9 35 -200 15z"/>
<path d="M6740 5725 c-19 -22 -4 -45 28 -45 33 0 57 22 48 45 -7 19 -60 20
-76 0z"/>
<path d="M7036 5579 c-32 -25 -32 -32 -5 -58 33 -30 19 -42 -25 -20 -22 10
-45 19 -51 19 -18 0 -48 -37 -40 -49 10 -17 113 -43 144 -36 30 6 54 44 45 70
-10 26 16 16 28 -10 28 -61 -42 -107 -191 -125 -66 -9 -103 -19 -122 -33 -29
-21 -29 -42 -1 -33 17 5 327 46 350 46 6 0 12 -11 12 -25 0 -14 4 -25 8 -25
14 0 42 35 42 52 0 9 14 21 30 27 17 5 30 15 30 20 0 13 -32 14 -82 2 -46 -11
-53 -5 -28 27 37 46 20 109 -39 149 -42 28 -71 29 -105 2z"/>
<path d="M2706 5364 c-9 -8 -16 -19 -16 -23 0 -16 26 -31 56 -31 25 0 34 5 40
22 12 40 -48 64 -80 32z"/>
<path d="M7009 5265 c-101 -37 -159 -87 -159 -138 0 -36 34 -77 71 -88 30 -10
43 -8 82 9 43 19 47 19 47 4 0 -30 -14 -37 -75 -37 -66 0 -125 -20 -125 -41 0
-17 13 -17 64 -3 35 10 42 8 80 -19 24 -17 47 -27 54 -23 6 4 52 6 101 5 104
-3 121 7 124 75 1 32 -5 47 -27 70 -27 28 -27 31 -12 52 44 63 -9 146 -86 136
-21 -3 -38 -1 -38 4 0 13 -59 10 -101 -6z m93 -35 c4 -29 4 -29 -45 -27 -43 2
-52 -2 -73 -27 -14 -16 -23 -35 -20 -43 4 -8 9 -26 12 -39 12 -46 -42 -20 -59
28 -14 40 65 109 146 128 18 5 33 8 33 9 1 1 4 -12 6 -29z m94 -51 c3 -6 2
-14 -2 -19 -12 -11 -57 7 -49 20 8 13 42 13 51 -1z m-102 -39 c6 -6 3 -17 -8
-29 -18 -20 -18 -19 -41 7 -13 15 -21 31 -18 35 6 10 53 0 67 -13z m109 -88
c19 -21 26 -55 13 -62 -5 -3 -10 4 -12 14 -1 10 -10 26 -18 34 -22 22 -70 5
-74 -26 -2 -12 -8 -22 -13 -22 -16 0 -10 26 12 54 24 31 68 35 92 8z"/>
<path d="M2395 5215 c-30 -29 -34 -89 -9 -141 38 -80 161 -87 152 -9 -3 28 -6
30 -46 30 -38 0 -46 4 -58 28 -23 44 -15 72 21 72 26 0 30 -4 30 -29 1 -30 27
-56 56 -56 25 0 49 27 49 56 0 29 29 33 53 6 55 -60 -15 -137 -175 -192 -58
-20 -88 -43 -74 -57 7 -7 177 48 226 72 59 30 106 78 114 117 14 70 -65 130
-144 110 -24 -6 -44 -5 -65 4 -50 22 -103 17 -130 -11z"/>
<path d="M2017 4708 c-52 -124 -60 -154 -60 -240 0 -69 -2 -78 -16 -72 -34 15
-142 31 -147 23 -10 -17 29 -165 62 -233 24 -49 34 -84 34 -117 0 -68 25 -191
49 -238 12 -22 21 -43 21 -46 0 -3 -25 -5 -55 -5 -37 0 -55 -4 -55 -12 0 -23
49 -120 85 -168 19 -26 35 -50 35 -54 0 -3 -13 -3 -30 1 -37 7 -37 3 -1 -85
37 -92 75 -156 124 -209 41 -45 40 -49 -16 -55 l-27 -3 32 -65 c20 -38 60 -93
99 -133 37 -38 61 -70 55 -73 -6 -2 -24 -5 -41 -7 -36 -5 -35 -14 7 -80 88
-138 302 -257 461 -257 67 0 91 -13 124 -67 46 -75 187 -248 223 -273 l33 -23
18 22 c11 13 19 26 19 30 0 3 -25 30 -55 60 -30 30 -88 102 -130 162 l-76 107
30 59 c16 32 35 88 42 125 10 57 10 76 -5 134 -19 78 -44 135 -87 194 -43 58
-54 59 -105 9 l-44 -43 0 53 c0 99 -57 256 -124 346 -18 23 -24 49 -29 111 -9
124 -51 224 -94 224 -10 0 -13 23 -13 94 0 100 -4 109 -53 121 -15 4 -27 9
-27 11 0 3 11 27 25 54 14 27 32 75 40 107 18 70 21 283 4 283 -7 0 -27 -10
-46 -21 -39 -24 -45 -22 -50 23 -4 43 -30 113 -61 163 -24 40 -121 145 -133
145 -4 0 -22 -37 -42 -82z m110 -102 c18 -26 37 -64 43 -84 15 -56 12 -143 -6
-177 -9 -16 -24 -43 -32 -59 l-15 -30 -28 34 c-37 44 -59 111 -59 181 0 67 36
192 53 187 7 -3 27 -26 44 -52z m149 -380 c-18 -79 -68 -176 -91 -176 -15 0
-20 40 -15 115 2 35 51 127 89 168 l26 29 3 -32 c2 -18 -4 -65 -12 -104z
m-312 72 c60 -39 102 -96 122 -165 20 -67 13 -78 -34 -54 -70 36 -145 138
-166 224 -9 38 17 36 78 -5z m116 -333 c32 -33 35 -40 41 -118 3 -45 5 -84 3
-86 -2 -2 -25 12 -51 30 -57 41 -90 100 -99 182 l-7 58 39 -16 c21 -9 55 -31
74 -50z m206 -102 c-12 -155 -44 -213 -57 -102 -4 30 -10 75 -14 100 -6 41 -4
49 16 68 12 11 32 21 42 21 19 0 20 -5 13 -87z m-168 -198 c42 -23 57 -37 86
-79 25 -37 36 -106 17 -106 -20 0 -109 45 -144 73 -47 38 -121 133 -113 146 7
11 115 -12 154 -34z m263 14 c17 -61 0 -319 -22 -319 -4 0 -16 12 -27 28 -25
35 -34 166 -17 232 23 89 51 113 66 59z m-214 -275 c57 -28 94 -52 98 -64 4
-11 18 -34 32 -50 28 -33 57 -116 43 -125 -4 -3 -21 2 -36 10 -16 8 -34 15
-41 15 -13 0 -116 81 -146 115 -36 41 -96 138 -91 147 8 13 36 3 141 -48z
m319 -56 c35 -67 64 -165 64 -214 0 -51 -15 -110 -32 -129 -11 -12 -41 23 -68
80 -32 65 -23 295 10 295 5 0 17 -14 26 -32z m-196 -261 c76 -38 88 -48 117
-97 18 -30 33 -59 33 -63 0 -13 -60 2 -119 30 -55 26 -149 110 -170 151 -11
21 -10 22 21 22 18 0 71 -19 118 -43z m452 -74 c34 -63 51 -126 49 -190 -1
-51 -26 -133 -41 -133 -9 0 -35 24 -92 87 -53 58 -61 93 -34 158 18 42 74 125
85 125 4 0 19 -21 33 -47z m-361 -173 c84 -16 169 -63 230 -127 63 -67 57 -73
-52 -48 -114 25 -225 90 -288 168 -12 15 -10 17 21 17 20 0 60 -5 89 -10z"/>
<path d="M7435 4728 c-67 -76 -116 -171 -123 -238 -5 -55 -14 -60 -52 -30 -50
39 -60 22 -60 -106 0 -90 28 -218 60 -269 27 -43 25 -51 -12 -61 -40 -12 -52
-51 -45 -146 3 -52 1 -68 -9 -68 -23 0 -64 -54 -79 -104 -8 -27 -15 -80 -15
-117 0 -59 -4 -74 -30 -112 -74 -110 -120 -231 -126 -332 -2 -33 -4 -61 -4
-63 0 -1 -19 15 -42 38 -23 22 -47 40 -53 40 -26 0 -105 -129 -129 -212 -28
-99 -15 -224 33 -301 12 -19 21 -39 21 -45 0 -19 -138 -208 -196 -269 -48 -50
-54 -61 -47 -83 14 -41 38 -35 98 27 49 50 164 201 206 270 10 18 26 23 79 28
219 22 402 125 497 282 35 56 32 63 -28 63 -16 0 -29 2 -29 4 0 2 28 32 63 68
59 61 139 190 125 203 -3 3 -19 8 -34 10 -16 2 -30 4 -31 4 -2 1 18 28 45 60
64 80 132 219 132 269 0 10 -7 12 -24 8 -37 -9 -38 4 -2 45 31 37 76 119 90
167 7 21 5 22 -53 22 -34 0 -61 3 -61 6 0 3 9 18 20 34 26 37 50 140 50 220 0
54 6 77 35 135 34 67 61 157 67 220 3 28 2 29 -35 26 -36 -2 -74 -11 -108 -25
-14 -6 -17 6 -22 86 -3 66 -12 113 -31 161 -34 89 -64 147 -75 147 -5 0 -35
-28 -66 -62z m68 -105 c25 -65 40 -143 34 -185 -7 -50 -64 -168 -81 -168 -18
0 -64 88 -72 137 -11 71 22 169 81 240 16 19 22 15 38 -24z m-193 -290 c9 -10
31 -45 49 -78 30 -53 34 -68 34 -127 -1 -91 -9 -99 -44 -46 -33 48 -65 148
-72 221 -5 51 7 61 33 30z m370 -22 c0 -29 -66 -154 -97 -183 -38 -36 -101
-69 -108 -58 -10 16 6 83 30 125 27 46 77 96 120 118 40 21 55 21 55 -2z m-92
-347 c-14 -93 -54 -156 -120 -190 l-26 -14 0 75 c-1 65 3 78 26 108 29 37 86
76 113 77 14 0 15 -8 7 -56z m-250 -38 c16 -21 18 -33 11 -78 -5 -29 -11 -74
-14 -100 -12 -98 -44 -31 -52 110 -5 88 -5 92 15 92 11 0 29 -11 40 -24z
m-102 -258 c25 -59 23 -247 -3 -283 -10 -14 -21 -25 -24 -25 -7 0 -27 104 -36
185 -7 62 13 165 32 165 7 0 21 -19 31 -42z m364 23 c0 -15 -75 -105 -119
-143 -22 -19 -58 -40 -78 -47 -21 -7 -44 -15 -50 -17 -21 -9 -16 67 7 103 22
36 80 78 137 99 44 15 103 18 103 5z m-60 -244 c0 -26 -84 -139 -142 -191 -33
-29 -79 -60 -102 -67 -22 -7 -47 -17 -54 -22 -42 -32 -17 53 41 141 36 52 54
70 84 81 21 8 51 23 66 33 46 33 107 47 107 25z m-411 -121 c15 -60 14 -140
-3 -201 -14 -55 -55 -124 -72 -125 -16 0 -34 69 -34 130 0 88 63 262 89 246 5
-3 14 -26 20 -50z m291 -205 c0 -23 -114 -130 -167 -158 -61 -32 -133 -51
-133 -34 0 5 4 11 9 13 5 2 20 26 35 55 24 48 32 55 108 92 79 37 148 52 148
32z m-528 -103 c53 -69 75 -139 58 -183 -5 -14 -37 -53 -70 -88 -57 -59 -61
-61 -75 -43 -26 34 -39 125 -26 186 13 64 59 160 76 160 7 0 24 -15 37 -32z
m408 -177 c0 -12 -69 -73 -118 -106 -69 -45 -272 -103 -272 -78 0 18 126 131
166 149 76 33 224 57 224 35z"/>
<path d="M3525 2292 c-12 -12 -3 -40 20 -62 13 -12 22 -27 19 -31 -9 -15 -36
-10 -49 8 -19 26 -38 6 -32 -34 4 -24 2 -36 -9 -40 -7 -3 -14 -13 -14 -23 0
-27 26 -43 60 -37 35 7 49 -8 21 -22 -37 -20 -100 19 -101 62 0 27 -26 20 -39
-12 -11 -24 -9 -37 12 -87 14 -33 28 -80 32 -106 4 -27 11 -48 15 -48 15 0 22
40 15 91 l-7 49 45 0 c37 0 49 5 66 25 21 27 86 75 101 75 5 0 14 -9 20 -21
13 -24 10 -28 -82 -117 -32 -30 -58 -63 -58 -74 0 -10 3 -18 6 -18 4 0 45 37
91 83 46 45 88 84 94 85 13 5 39 -17 39 -32 0 -6 -32 -45 -70 -86 -63 -67 -86
-110 -61 -110 5 0 47 40 92 90 61 66 86 87 95 79 18 -15 27 6 14 31 -16 30 -4
40 45 40 38 0 47 -4 69 -33 15 -19 26 -41 26 -50 0 -9 5 -19 10 -22 15 -9 12
40 -4 80 -30 71 -106 91 -169 44 -23 -17 -31 -18 -43 -8 -9 7 -13 21 -11 31 7
26 -10 32 -23 8 -11 -21 -30 -27 -30 -10 0 14 -198 209 -205 202z m109 -155
c8 -13 7 -20 -4 -27 -8 -5 -19 -10 -23 -10 -12 0 -20 28 -13 46 7 19 25 15 40
-9z"/>
<path d="M6015 2184 c-49 -47 -127 -110 -172 -141 -46 -31 -83 -60 -83 -65 0
-12 78 -10 101 3 32 17 59 2 59 -33 0 -26 -3 -30 -21 -25 -35 9 -18 -26 18
-37 46 -13 63 4 63 65 0 62 18 64 78 9 29 -26 53 -40 70 -40 24 0 18 9 -60 81
-49 45 -88 85 -88 89 0 9 106 113 120 118 12 4 70 -39 65 -48 -3 -4 -15 -5
-28 -3 -16 3 -34 -4 -52 -19 -23 -20 -27 -30 -21 -52 9 -35 47 -53 81 -38 28
13 34 49 10 58 -8 4 -15 11 -15 16 0 18 107 1 144 -21 36 -23 46 -25 46 -13 0
5 -45 39 -100 76 -82 55 -100 72 -95 87 14 42 -33 16 -120 -67z m-45 -139 c10
-12 9 -15 -7 -15 -10 0 -24 -5 -30 -11 -7 -7 -19 -9 -29 -5 -16 6 -16 8 1 26
22 24 48 26 65 5z"/>
<path d="M3873 1945 c-37 -16 -43 -40 -13 -50 11 -3 20 -11 20 -17 0 -5 -9
-12 -20 -15 -11 -3 -20 -11 -20 -18 0 -20 31 -26 70 -15 80 23 88 8 35 -70
-35 -51 -46 -95 -23 -88 6 2 37 44 68 94 41 65 62 89 76 88 10 -1 64 -18 119
-37 131 -46 155 -51 155 -34 0 8 -19 21 -42 30 -24 8 -78 27 -121 43 -79 27
-112 48 -102 64 3 5 1 11 -5 15 -6 3 -18 -7 -28 -24 -20 -36 -28 -38 -37 -12
-15 48 -78 69 -132 46z m78 -36 c23 -12 16 -29 -11 -29 -21 0 -34 15 -25 30 8
13 12 12 36 -1z"/>
<path d="M5654 1926 c-15 -12 -16 -16 -5 -30 10 -11 30 -16 71 -16 71 0 90 -7
90 -31 0 -24 -32 -40 -86 -42 -24 -1 -44 -5 -44 -8 0 -3 10 -15 23 -27 21 -20
29 -20 159 -15 117 5 135 8 120 19 -10 8 -44 13 -80 14 l-63 0 7 35 c5 30 2
39 -24 65 -24 24 -39 30 -72 30 -23 0 -49 4 -59 10 -13 6 -24 5 -37 -4z"/>
<path d="M4076 1823 c-3 -3 -6 -37 -6 -75 0 -61 3 -71 29 -100 26 -29 35 -33
81 -33 44 0 55 4 76 28 50 59 17 147 -56 147 -44 0 -63 -18 -58 -57 2 -23 8
-29 35 -31 24 -2 34 2 43 18 13 23 30 18 30 -10 0 -54 -74 -67 -121 -21 -24
25 -29 38 -29 80 0 47 -9 68 -24 54z"/>
<path d="M5604 1816 c-3 -9 -11 -16 -16 -16 -6 0 -16 -6 -22 -14 -6 -7 -29
-16 -51 -20 -38 -5 -42 -3 -59 24 -21 36 -66 43 -66 10 0 -10 9 -24 19 -30 11
-5 34 -41 51 -79 24 -53 39 -72 62 -82 35 -15 70 0 87 38 14 30 14 83 1 83
-18 0 -11 25 11 38 12 8 19 21 17 34 -4 26 -26 35 -34 14z m-44 -115 c0 -35
-9 -61 -21 -61 -13 0 -41 60 -35 76 3 8 17 14 31 14 21 0 25 -5 25 -29z"/>
<path d="M5180 1750 c0 -37 31 -55 115 -65 73 -9 95 -20 95 -46 0 -20 -1 -20
-31 5 -40 34 -81 34 -108 0 -12 -15 -21 -37 -21 -50 0 -53 81 -87 88 -38 2 16
-4 23 -22 28 -35 9 -36 46 -2 46 28 0 42 -14 51 -53 10 -37 38 -35 69 6 31 41
33 66 6 99 -24 31 -58 45 -131 53 -45 5 -58 10 -62 26 -3 11 -14 19 -26 19
-17 0 -21 -6 -21 -30z"/>
<path d="M5004 1735 c-10 -24 2 -42 48 -75 94 -67 105 -90 42 -90 -31 0 -74
-28 -74 -47 1 -20 20 -34 53 -40 32 -5 41 -1 72 30 39 39 44 68 17 109 -18 27
-72 78 -83 78 -3 0 -11 11 -17 25 -13 28 -49 34 -58 10z"/>
</g>
</svg>
